PathFileType	4	(X/Y/Z)	CPRIT_Patient3_L_AnkleIso_Processed.TRC
DataRate	CameraRate	NumFrames	NumMarkers	Units	OrigDataRate	OrigDataStartFrame	OrigNumFrames
150.205761316872	150.205761316872	4	36	m	150.205761316872	275	       731
Frame#	Time	R.Heel			R.Midfoot.Superior			R.Midfoot.Lateral			R.Toe			L.Heel			L.Midfoot.Superior			L.Midfoot.Lateral			L.Toe			R.Shank.Superior			R.Shank.Inferior			R.Shank.Lateral			R.Shank.Posterior			L.Shank.Superior			L.Shank.Inferior			L.Shank.Posterior			L.Shank.Lateral			R.Patella			L.Patella			R.Thigh.Superior			R.Thigh.Lateral			R.Thigh.Inferior			L.Thigh.Superior			L.Thigh.Inferior			L.Thigh.Lateral			L.Asis			R.Asis			R.Shoulder			L.Shoulder			C7			J.Notch			Sternum			Thoracic			L.Elbow			L.Wrist			R.Elbow			R.Wrist			
		X1	Y1	Z1	X2	Y2	Z2	X3	Y3	Z3	X4	Y4	Z4	X5	Y5	Z5	X6	Y6	Z6	X7	Y7	Z7	X8	Y8	Z8	X9	Y9	Z9	X10	Y10	Z10	X11	Y11	Z11	X12	Y12	Z12	X13	Y13	Z13	X14	Y14	Z14	X15	Y15	Z15	X16	Y16	Z16	X17	Y17	Z17	X18	Y18	Z18	X19	Y19	Z19	X20	Y20	Z20	X21	Y21	Z21	X22	Y22	Z22	X23	Y23	Z23	X24	Y24	Z24	X25	Y25	Z25	X26	Y26	Z26	X27	Y27	Z27	X28	Y28	Z28	X29	Y29	Z29	X30	Y30	Z30	X31	Y31	Z31	X32	Y32	Z32	X33	Y33	Z33	X34	Y34	Z34	X35	Y35	Z35	X36	Y36	Z36	

275	1.824164383562	0.416319927222	0.049487314319	0.096275454947	0.571945707972	0.098720688702	0.167561906554	0.469559550764	0.037902487853	0.175866864647	0.677646554804	0.054976555108	0.217964109727	0.712244340085	0.123080079322	-0.060075444303	0.894527416259	0.126616087532	-0.059188606941	0.792408455698	0.074994318101	-0.093199214664	0.991319342090	0.057482327357	-0.020827646670	0.527685538432	0.359698485626	0.181635805664	0.519387476314	0.239989044737	0.173051289855	0.439397194862	0.293807275113	0.209995193280	0.393257362388	0.359465506212	0.141181910749	0.748075110209	0.424367811183	-0.086590121048	0.782341060588	0.299137634759	-0.083165657754	0.623427918350	0.355714333468	-0.063556542950	0.704378701750	0.321025952758	-0.123634070011	0.559683641458	0.466242203545	0.171940749255	0.730686367553	0.542801486508	-0.078065442382	0.615972885543	0.777743230355	0.193997353877	0.525461620685	0.710475875154	0.241797802938	0.604102432892	0.617365479273	0.166639117057	0.647886455917	0.823304428010	-0.084060226071	0.701476950393	0.682784231022	-0.066117236696	0.579644674734	0.730976972307	-0.136890134302	0.599184217908	0.951595696291	-0.059198238093	0.615905703844	0.938044907446	0.178087618132	0.538407446443	1.461975814200	0.208832410809	0.575918916340	1.435998717153	-0.107479521064	0.521307683929	1.483635121136	0.061936116521	0.625019143842	1.372195409174	0.061677136937	0.667580860934	1.193802449558	0.057328535913	0.415284601215	1.332994435060	0.058563212634	0.529867222730	1.178317573378	-0.294818384822	0.613665879436	0.987904553889	-0.433350953584	0.500692846920	1.185107433053	0.405710199719	0.660206282135	0.988457588644	0.415954807319	
276	1.830821917808	0.416319863852	0.049488481275	0.096276285599	0.571946500268	0.098720111928	0.167561466727	0.469560017036	0.037902857268	0.175867448974	0.677646287326	0.054977122094	0.217964160999	0.712553410645	0.122939125301	-0.059957821315	0.894827830424	0.126880573419	-0.058729330689	0.792896162739	0.074902375596	-0.092823771428	0.991702385623	0.058123664102	-0.019963899850	0.527702448751	0.359697050748	0.181631409342	0.519397560049	0.239988220756	0.173047657637	0.439411296564	0.293810667835	0.209995759451	0.393272665369	0.359470182815	0.141180561413	0.748227003675	0.424410096673	-0.086413212887	0.782530506866	0.299194566989	-0.082943844454	0.623602486862	0.355735512309	-0.063457863848	0.704572011419	0.321037361756	-0.123528186400	0.559706834659	0.466241689639	0.171936090763	0.730788587292	0.542842426847	-0.077926638260	0.616003851366	0.777747742600	0.193989545133	0.525495522352	0.710477050584	0.241796132627	0.604135187578	0.617369007207	0.166637816570	0.647938687178	0.823323041624	-0.084015818369	0.701580196343	0.682818298924	-0.065955272826	0.579735263242	0.730977098491	-0.136838887872	0.599196031173	0.951609240510	-0.059190364356	0.615921530070	0.938049820176	0.178085859857	0.538400404143	1.461970054054	0.208836575651	0.575912188936	1.435995097426	-0.107473886737	0.521302353105	1.483632078410	0.061942849126	0.625021746186	1.372185655948	0.061688238523	0.667565388463	1.193796328533	0.057334674437	0.415281051011	1.332991345527	0.058569111692	0.529857425252	1.178310330578	-0.294810697856	0.613664437177	0.987904548610	-0.433347644056	0.500697294298	1.185101794771	0.405717910221	0.660213921795	0.988456345831	0.415955265628	
277	1.837479452055	0.416319861847	0.049489638342	0.096277161930	0.571947247412	0.098719480638	0.167560772230	0.469560484389	0.037903165471	0.175868061680	0.677646060514	0.054977546083	0.217964073378	0.712875286339	0.122797806811	-0.059842618606	0.895139705944	0.127155547762	-0.058287050547	0.793396596636	0.074815566345	-0.092453116709	0.992102829776	0.058782704653	-0.019122337616	0.527720958201	0.359695417187	0.181626311492	0.519408831105	0.239987074152	0.173043578148	0.439427053417	0.293814021974	0.209996671770	0.393289310532	0.359474868501	0.141179835224	0.748382182146	0.424456997948	-0.086243905584	0.782726209296	0.299257025789	-0.082731059649	0.623781800123	0.355757343206	-0.063362965328	0.704769372776	0.321051769940	-0.123428561480	0.559731555488	0.466241142519	0.171930113530	0.730892242748	0.542887632196	-0.077793570743	0.616036457610	0.777752613569	0.193979515682	0.525531530090	0.710478324086	0.241793731821	0.604169011346	0.617372719118	0.166634144483	0.647989234246	0.823343415684	-0.083974764275	0.701683817801	0.682854906970	-0.065798485473	0.579824038355	0.730978493112	-0.136790325589	0.599205793368	0.951623201125	-0.059184263895	0.615937919447	0.938054930145	0.178082456285	0.538394666610	1.461964238407	0.208840021926	0.575903598001	1.435991064210	-0.107468652010	0.521296685398	1.483628942491	0.061949950214	0.625023445813	1.372175345779	0.061698293922	0.667548452652	1.193789546297	0.057338718445	0.415276708988	1.332988594828	0.058576100433	0.529846206120	1.178302692317	-0.294803033472	0.613662671468	0.987904642180	-0.433344240510	0.500703582580	1.185097500842	0.405726941782	0.660221508758	0.988455122978	0.415956096352	
278	1.844136986301	0.416319922015	0.049490758932	0.096278080186	0.571947926364	0.098718794102	0.167559814840	0.469560952879	0.037903408218	0.175868695385	0.677645880913	0.054977830285	0.217963851286	0.713209180205	0.122658172592	-0.059729009540	0.895462484038	0.127439092988	-0.057861574211	0.793907745632	0.074735303667	-0.092087155354	0.992518757493	0.059454016949	-0.018304436951	0.527740876882	0.359693595226	0.181620526524	0.519421156118	0.239985605387	0.173039086934	0.439444268092	0.293817320210	0.209997864970	0.393307148813	0.359479533168	0.141179661623	0.748540944354	0.424508515799	-0.086081617240	0.782928424580	0.299324938433	-0.082526618811	0.623965971055	0.355779837208	-0.063270735991	0.704971167284	0.321069318578	-0.123333660133	0.559757573748	0.466240589851	0.171922923902	0.730997628878	0.542937013537	-0.077665836933	0.616070445545	0.777757835776	0.193967389719	0.525569166089	0.710479690686	0.241790558034	0.604203604068	0.617376593155	0.166628232352	0.648038212533	0.823365533672	-0.083937273148	0.701787825070	0.682894013435	-0.065647073014	0.579911062188	0.730980923111	-0.136744276638	0.599213584905	0.951637478656	-0.059179978769	0.615954667673	0.938060218987	0.178077446095	0.538390165985	1.461958372553	0.208842687468	0.575893210429	1.435986651153	-0.107463941923	0.521290626295	1.483625736411	0.061957338410	0.625024275379	1.372164611086	0.061707193107	0.667530157514	1.193782191652	0.057340633563	0.415271546191	1.332986162509	0.058584031716	0.529833649686	1.178294748062	-0.294795541896	0.613660613807	0.987904828106	-0.433340785002	0.500711701496	1.185094599780	0.405737280336	0.660229011882	0.988453924223	0.415957333882	
